<svg aria-hidden="true" style="position:absolute;overflow:hidden" xmlns="http://www.w3.org/2000/svg"><defs><symbol id="icon-menu" viewBox="0 0 18 11"><path  d="M0 0h18v3H0zM5 8h13v3H5z"/></symbol><symbol id="icon-close" viewBox="0 0 11 11"><path d="M11 1.108 9.892 0 5.5 4.392 1.108 0 0 1.108 4.392 5.5 0 9.892 1.108 11 5.5 6.608 9.892 11 11 9.892 6.608 5.5 11 1.108Z" /></symbol><symbol id="icon-bem" viewBox="0 0 256 212"><path d="M0 32.692h59.85v17.603H0V32.692ZM0 0h59.85v17.603H0V0Zm107.38 65.132H0v17.603h103.356c11.316 0 37.72.251 47.528 16.094v-9.807c-4.778-15.592-18.86-23.89-43.505-23.89Zm.25 32.691H0v17.603h103.356c25.147 0 40.99 1.006 47.528 4.527v-7.796c-5.03-12.322-26.153-14.334-43.253-14.334Zm-.25 82.986H0v-17.603h103.356c11.316 0 37.72-.251 47.528-16.094v9.807c-4.778 15.592-18.86 23.89-43.505 23.89Zm.25-32.691H0v-17.603h103.356c25.147 0 40.99-1.006 47.528-4.527v7.796c-5.03 12.322-26.153 14.334-43.253 14.334Zm69.407 63.12H256v-10.814h-76.7c-6.79 0-22.883-.251-28.667-9.556v6.036c2.766 9.304 11.316 14.334 26.404 14.334Zm-.251-19.867h78.963v-10.813H179.3c-15.34 0-24.896-.503-28.668-2.766v4.778c3.017 7.544 15.842 8.801 26.153 8.801Z" fill="#25c2a0"/></symbol><symbol id="icon-css" viewBox="0 0 1199.3 1692.8"><path d="M282 114v114h182v-76H358V76h106V0H282zm218.2-39.8.3 74.3 52.8.3 52.7.2v13H500v69h182V79H576V66h106V0H500zm218.8.3V149h105v13H719v69h181V79H795V66h105V0H719zM.4 336.2C.7 338 25.3 613.3 55.1 948s54.2 608.6 54.3 608.7 110.2 30.8 244.8 68.1l244.7 68 245.3-68c134.9-37.4 245.4-68.1 245.4-68.2.1 0 24.5-273.7 54.3-608.1s54.4-609.7 54.7-611.8l.6-3.7H-.1zm974.6 249c0 2.2-7.1 82.1-48.9 550.2-10.4 116.5-19.3 212.2-19.8 212.6-1.1 1-304.7 85-307.1 85-1.9 0-307-84.4-307.7-85.2-.2-.2-4.9-51.4-10.4-113.8-5.6-62.4-10.3-115.4-10.7-117.8l-.5-4.2h75.5c41.6 0 75.6.1 75.7.2 0 .2 2.4 27 5.4 59.6 2.9 32.7 5.5 59.5 5.7 59.7s37.7 10.5 83.5 22.8l83.1 22.5 83.3-22.5c45.9-12.4 83.6-22.7 83.8-22.8.4-.5 17-185.7 17.1-190.8v-3.7H263v-2.5c0-1.4-2.9-35.1-6.5-74.8s-6.5-72.3-6.5-72.5c0-.1 123.1-.2 273.5-.2H797v-2.5c0-1.3 2.9-35.3 6.5-75.3 3.6-40.1 6.5-73.7 6.5-74.6 0-1.5-22.1-1.6-286.7-1.8l-286.8-.3-6.1-68c-3.4-37.4-6.5-71-6.9-74.8l-.6-6.7H975z" fill="#25c2a0"/></symbol><symbol id="icon-html" viewBox="0 0 512 512"><switch><g><path fill="#25C2A0" d="M107.644 470.877 74.633 100.62h362.734l-33.046 370.199L255.778 512z"/><path fill="#5CD1B8" d="m256 480.523 120.03-33.277 28.24-316.352H256z"/><g><path d="M256 268.217h-60.09l-4.15-46.501H256v-45.411H142.132l1.087 12.183 11.161 125.139H256zM256 386.153l-.199.053-50.574-13.656-3.233-36.217h-45.585l6.362 71.301 93.02 25.823.209-.058z"/></g><path d="M108.382 0h23.077v22.8h21.11V0h23.078v69.044H152.57v-23.12h-21.11v23.12h-23.077V0zM205.994 22.896h-20.316V0h63.72v22.896h-20.325v46.148h-23.078V22.896zM259.511 0h24.063l14.802 24.26L313.163 0h24.072v69.044h-22.982V34.822l-15.877 24.549h-.397l-15.888-24.549v34.222h-22.58V0zM348.72 0h23.084v46.222h32.453v22.822H348.72V0z" fill="#25C2A0"/><g><path d="M255.843 268.217v45.41h55.918l-5.271 58.894-50.647 13.67v47.244l93.094-25.801.683-7.672 10.671-119.551 1.108-12.194h-12.237zM255.843 176.305V221.716h109.688l.911-10.207 2.069-23.021 1.086-12.183z"/></g></g></switch></symbol><symbol id="icon-js" viewBox="0 0 256.4 291.5"><path d="M18.8 375.4-5 113.4l256.4.1-23.6 261.7L123 404.8 18.8 375.4zm189.7-14.3 19.9-224.4h-105l.8 247.5 84.3-23.1zm-94.9-191.5H88.1l-.3 134.3-49.5-13.5.1 30.7 75.2 20.3V169.6z" style="fill:#25C2A0" transform="translate(4.988 -113.385)"/><path d="M105.2 338.9c-3.3-1-19.6-5.4-36.2-9.9l-30.1-8.1v-15.1c0-14.8 0-15.1 1.5-14.6.8.3 11.8 3.3 24.4 6.8l22.9 6.3.2-67 .2-67h25v85.2c0 67.7-.2 85.2-.9 85.2-.5-.1-3.7-.9-7-1.8z" style="opacity:1;fill:#000000;fill-opacity:0;enable-background:new" fill="none" transform="translate(4.988 -113.385)"/><path d="m38.4 321.1-.1-30.7s31.6 8.9 49.5 13.5l.3-134.2h25.5v171.7l-75.2-20.3z" style="fill-opacity:1;opacity:1;fill:#000000;enable-background:new" transform="translate(4.988 -113.385)"/><path d="M123.4 136.6h105L208.5 361l-85.1 23.1V136.6zm79.7 186.8 6.9-83.9-51 5.7v-44.8l54.4-.2 2.2-30.6-82.1.4 1.1 111.4 49.6-8.5-.7 24.8-50 13.3.5 30.4 69.1-18z" style="fill:#5CD1B8" transform="translate(4.988 -113.385)"/></symbol><symbol id="icon-node" viewBox="0 0 256 289"><path d="M128 288.464c-3.975 0-7.685-1.06-11.13-2.915l-35.247-20.936c-5.3-2.915-2.65-3.975-1.06-4.505 7.155-2.385 8.48-2.915 15.9-7.156.796-.53 1.856-.265 2.65.265l27.032 16.166c1.06.53 2.385.53 3.18 0l105.74-61.217c1.06-.53 1.59-1.59 1.59-2.915V83.08c0-1.325-.53-2.385-1.59-2.915l-105.74-60.953c-1.06-.53-2.385-.53-3.18 0L20.405 80.166c-1.06.53-1.59 1.855-1.59 2.915v122.17c0 1.06.53 2.385 1.59 2.915l28.887 16.695c15.636 7.95 25.44-1.325 25.44-10.6V93.68c0-1.59 1.326-3.18 3.181-3.18h13.516c1.59 0 3.18 1.325 3.18 3.18v120.58c0 20.936-11.396 33.126-31.272 33.126-6.095 0-10.865 0-24.38-6.625l-27.827-15.9C4.24 220.885 0 213.465 0 205.515V83.346C0 75.396 4.24 67.976 11.13 64L116.87 2.783c6.625-3.71 15.635-3.71 22.26 0L244.87 64C251.76 67.975 256 75.395 256 83.346v122.17c0 7.95-4.24 15.37-11.13 19.345L139.13 286.08c-3.445 1.59-7.42 2.385-11.13 2.385Zm32.596-84.009c-46.377 0-55.917-21.2-55.917-39.221 0-1.59 1.325-3.18 3.18-3.18h13.78c1.59 0 2.916 1.06 2.916 2.65 2.12 14.045 8.215 20.936 36.306 20.936 22.261 0 31.802-5.035 31.802-16.96 0-6.891-2.65-11.926-37.367-15.372-28.886-2.915-46.907-9.275-46.907-32.33 0-21.467 18.02-34.187 48.232-34.187 33.921 0 50.617 11.66 52.737 37.101 0 .795-.265 1.59-.795 2.385-.53.53-1.325 1.06-2.12 1.06h-13.78c-1.326 0-2.65-1.06-2.916-2.385-3.18-14.575-11.395-19.345-33.126-19.345-24.38 0-27.296 8.48-27.296 14.84 0 7.686 3.445 10.07 36.306 14.31 32.597 4.24 47.967 10.336 47.967 33.127-.265 23.321-19.345 36.571-53.002 36.571Z" fill="#25C2A0"/></symbol><symbol id="icon-photoshop" viewBox="-362.4 459.1 500 500"><radialGradient id="a" cx="-1002.912" cy="1088.669" r=".637" gradientTransform="matrix(545.6736 0 0 -528.3113 547071.625 575749.063)" gradientUnits="userSpaceOnUse"><stop offset="0" style="stop-color:#000000;stop-opacity:.98"/><stop offset="1" style="stop-color:#000000"/></radialGradient><path fill="url(#a)" d="M-341.6 493.3h457.5v445h-457.5v-445z"/><path fill="#25C2A0" d="M-341.6 493.3h457.5v445h-457.5v-445zm-20.8 465.8h499V472.5h-499v486.6zm336.5-286.9c-16.4 0-22 8.3-22 15.2 0 7.5 3.7 12.7 25.8 24.1 32.6 15.8 42.8 31 42.8 53.2 0 33.3-25.4 51.2-59.7 51.2-18.1 0-33.7-3.7-42.6-8.9-1.5-.6-1.7-1.7-1.7-3.3V773c0-2.1 1-2.7 2.5-1.7 13.1 8.5 28.1 12.3 41.8 12.3 16.4 0 23.3-6.9 23.3-16.2 0-7.5-4.8-14.1-25.8-25C-71 728.3-83.3 714-83.3 690c0-26.8 21-49.1 57.4-49.1 17.9 0 30.4 2.7 37.2 5.8 1.7 1 2.1 2.7 2.1 4.2v28.5c0 1.7-1 2.7-3.1 2.1-9.2-5.8-22.7-9.3-36.2-9.3zm-178.8 24.7c4.8.4 8.5.4 16.8.4 24.3 0 47.2-8.5 47.2-41.6 0-26.4-16.4-39.7-44.1-39.7-8.3 0-16.2.4-20 .6l.1 80.3zm-37.1-110.4c0-1.5 2.9-2.5 4.6-2.5 13.3-.6 33.1-1 53.6-1 57.6 0 80.1 31.6 80.1 71.9 0 52.8-38.3 75.5-85.3 75.5-7.9 0-10.6-.4-16.2-.4v79.8c0 1.7-.6 2.5-2.5 2.5h-31.8c-1.7 0-2.5-.6-2.5-2.5V586.5z"/></symbol><symbol id="icon-react" viewBox="0 0 256 230"><path d="M.754 114.75c0 19.215 18.763 37.152 48.343 47.263-5.907 29.737-1.058 53.706 15.136 63.045 16.645 9.6 41.443 2.955 64.98-17.62 22.943 19.744 46.13 27.514 62.31 18.148 16.63-9.627 21.687-35.221 15.617-65.887 30.81-10.186 48.044-25.481 48.044-44.949 0-18.769-18.797-35.006-47.979-45.052 6.535-31.933.998-55.32-15.867-65.045-16.259-9.376-39.716-1.204-62.996 19.056C104.122 2.205 80.897-4.36 64.05 5.392 47.806 14.795 43.171 39.2 49.097 69.487 20.515 79.452.754 96.057.754 114.75Z" fill="#000000"/><path d="M201.025 79.674a151.364 151.364 0 0 0-7.274-2.292 137.5 137.5 0 0 0 1.124-4.961c5.506-26.728 1.906-48.26-10.388-55.348-11.787-6.798-31.065.29-50.535 17.233a151.136 151.136 0 0 0-5.626 5.163 137.573 137.573 0 0 0-3.744-3.458c-20.405-18.118-40.858-25.752-53.139-18.643-11.776 6.817-15.264 27.06-10.307 52.39a150.91 150.91 0 0 0 1.67 7.484c-2.894.822-5.689 1.698-8.363 2.63-23.922 8.34-39.2 21.412-39.2 34.97 0 14.004 16.4 28.05 41.318 36.566a128.44 128.44 0 0 0 6.11 1.91 147.813 147.813 0 0 0-1.775 8.067c-4.726 24.89-1.035 44.653 10.71 51.428 12.131 6.995 32.491-.195 52.317-17.525 1.567-1.37 3.14-2.823 4.715-4.346a148.34 148.34 0 0 0 6.108 5.573c19.204 16.525 38.17 23.198 49.905 16.405 12.12-7.016 16.058-28.247 10.944-54.078-.39-1.973-.845-3.988-1.355-6.04 1.43-.422 2.833-.858 4.202-1.312 25.904-8.582 42.757-22.457 42.757-36.648 0-13.607-15.77-26.767-40.174-35.168Z" fill="#25C2A0"/><path d="M195.406 142.328c-1.235.409-2.503.804-3.795 1.187-2.86-9.053-6.72-18.68-11.442-28.625 4.507-9.71 8.217-19.213 10.997-28.208 2.311.67 4.555 1.375 6.717 2.12 20.91 7.197 33.664 17.84 33.664 26.04 0 8.735-13.775 20.075-36.14 27.486Zm-9.28 18.389c2.261 11.422 2.584 21.749 1.086 29.822-1.346 7.254-4.052 12.09-7.398 14.027-7.121 4.122-22.35-1.236-38.772-15.368-1.883-1.62-3.78-3.35-5.682-5.18 6.367-6.964 12.73-15.06 18.94-24.05 10.924-.969 21.244-2.554 30.603-4.717.46 1.86.87 3.683 1.223 5.466Zm-93.85 43.137c-6.957 2.457-12.498 2.527-15.847.596-7.128-4.11-10.09-19.98-6.049-41.265a138.507 138.507 0 0 1 1.65-7.502c9.255 2.047 19.5 3.52 30.45 4.408 6.251 8.797 12.798 16.883 19.396 23.964a118.863 118.863 0 0 1-4.305 3.964c-8.767 7.664-17.552 13.1-25.294 15.835Zm-32.593-61.58c-11.018-3.766-20.117-8.66-26.354-14-5.604-4.8-8.434-9.565-8.434-13.432 0-8.227 12.267-18.722 32.726-25.855a139.276 139.276 0 0 1 7.777-2.447c2.828 9.197 6.537 18.813 11.013 28.537-4.534 9.869-8.296 19.638-11.15 28.943a118.908 118.908 0 0 1-5.578-1.746Zm10.926-74.37c-4.247-21.703-1.427-38.074 5.67-42.182 7.56-4.376 24.275 1.864 41.893 17.507 1.126 1 2.257 2.047 3.39 3.13-6.564 7.049-13.051 15.074-19.248 23.82-10.627.985-20.8 2.567-30.152 4.686a141.525 141.525 0 0 1-1.553-6.962Zm97.467 24.067a306.982 306.982 0 0 0-6.871-11.3c7.21.91 14.117 2.12 20.603 3.601-1.947 6.241-4.374 12.767-7.232 19.457a336.42 336.42 0 0 0-6.5-11.758Zm-39.747-38.714c4.452 4.823 8.911 10.209 13.297 16.052a284.245 284.245 0 0 0-26.706-.006c4.39-5.789 8.887-11.167 13.409-16.046Zm-40.002 38.78a285.24 285.24 0 0 0-6.378 11.685c-2.811-6.667-5.216-13.222-7.18-19.552 6.447-1.443 13.322-2.622 20.485-3.517a283.79 283.79 0 0 0-6.927 11.384Zm7.133 57.683c-7.4-.826-14.379-1.945-20.824-3.348 1.995-6.442 4.453-13.138 7.324-19.948a283.494 283.494 0 0 0 6.406 11.692 285.27 285.27 0 0 0 7.094 11.604Zm33.136 27.389c-4.575-4.937-9.138-10.397-13.595-16.27 4.326.17 8.737.256 13.22.256 4.606 0 9.159-.103 13.64-.303-4.4 5.98-8.843 11.448-13.265 16.317Zm46.072-51.032c3.02 6.884 5.566 13.544 7.588 19.877-6.552 1.495-13.625 2.699-21.078 3.593a337.537 337.537 0 0 0 6.937-11.498 306.632 306.632 0 0 0 6.553-11.972Zm-14.915 7.15a316.478 316.478 0 0 1-10.84 17.49c-6.704.479-13.632.726-20.692.726-7.031 0-13.871-.219-20.458-.646A273.798 273.798 0 0 1 96.72 133.28a271.334 271.334 0 0 1-9.64-18.206 273.864 273.864 0 0 1 9.611-18.216v.002a271.252 271.252 0 0 1 10.956-17.442c6.72-.508 13.61-.774 20.575-.774 6.996 0 13.895.268 20.613.78a290.704 290.704 0 0 1 10.887 17.383 316.418 316.418 0 0 1 9.741 18.13 290.806 290.806 0 0 1-9.709 18.29Zm19.913-107.792c7.566 4.364 10.509 21.961 5.755 45.038a127.525 127.525 0 0 1-1.016 4.492c-9.374-2.163-19.554-3.773-30.212-4.773-6.209-8.841-12.642-16.88-19.1-23.838a141.92 141.92 0 0 1 5.196-4.766c16.682-14.518 32.273-20.25 39.377-16.153Z" fill="#000000"/><path d="M128.221 94.665c11.144 0 20.177 9.034 20.177 20.177 0 11.144-9.033 20.178-20.177 20.178-11.143 0-20.177-9.034-20.177-20.178 0-11.143 9.034-20.177 20.177-20.177" fill="#25C2A0"/></symbol><symbol id="icon-sass" viewBox="0 0 256 192"><path d="M220.281 110.514c-8.906.046-16.647 2.191-23.128 5.362-2.379-4.71-4.757-8.906-5.176-11.984-.467-3.59-1.026-5.782-.467-10.072.56-4.29 3.078-10.399 3.031-10.865-.046-.466-.56-2.658-5.689-2.704-5.129-.047-9.559.979-10.072 2.331-.513 1.352-1.492 4.43-2.145 7.6-.886 4.664-10.258 21.31-15.62 30.03-1.726-3.403-3.218-6.388-3.545-8.766-.466-3.59-1.026-5.782-.466-10.072.56-4.29 3.078-10.398 3.031-10.865-.047-.466-.56-2.658-5.689-2.704-5.13-.047-9.56.979-10.072 2.331-.513 1.353-1.073 4.523-2.145 7.601-1.073 3.078-13.523 30.87-16.787 38.05a214.726 214.726 0 0 1-4.15 8.627s-.047.14-.187.373a117.773 117.773 0 0 1-1.398 2.658v.046c-.7 1.26-1.446 2.425-1.819 2.425-.28 0-.793-3.357.093-7.927 1.865-9.652 6.295-24.667 6.249-25.18 0-.28.839-2.891-2.891-4.244-3.638-1.352-4.943.886-5.27.886-.326 0-.56.793-.56.793s4.058-16.88-7.74-16.88c-7.367 0-17.533 8.067-22.569 15.341a6269.96 6269.96 0 0 0-17.16 9.373c-2.75 1.539-5.595 3.078-8.253 4.523-.187-.186-.373-.42-.56-.606-14.269-15.248-40.661-26.02-39.542-46.49.42-7.461 2.984-27.046 50.687-50.827 39.262-19.352 70.505-13.99 75.914-2.099 7.74 16.974-16.74 48.496-57.309 53.065-15.481 1.726-23.595-4.243-25.646-6.481-2.145-2.332-2.472-2.472-3.265-2.005-1.305.7-.466 2.798 0 4.01 1.213 3.17 6.202 8.766 14.642 11.518 7.461 2.424 25.6 3.777 47.563-4.71 24.574-9.513 43.786-35.952 38.144-58.101-5.643-22.476-42.947-29.89-78.246-17.347C61.086 13.99 38.33 25.74 21.963 41.035 2.518 59.22-.56 75.028.699 81.65c4.524 23.501 36.932 38.796 49.895 50.127-.653.373-1.26.7-1.772.98-6.482 3.217-31.196 16.133-37.351 29.796-6.994 15.481 1.12 26.58 6.482 28.071 16.647 4.617 33.76-3.683 42.946-17.393 9.186-13.709 8.067-31.522 3.824-39.682-.047-.093-.093-.187-.187-.28 1.679-.979 3.404-2.005 5.083-2.984a247.933 247.933 0 0 1 9.373-5.27c-1.586 4.337-2.752 9.513-3.311 16.974-.7 8.767 2.89 20.144 7.6 24.62 2.099 1.96 4.57 2.006 6.156 2.006 5.502 0 7.974-4.57 10.725-9.979 3.357-6.621 6.388-14.315 6.388-14.315s-3.777 20.797 6.482 20.797c3.73 0 7.507-4.85 9.186-7.321v.046s.093-.14.28-.466c.373-.606.606-.98.606-.98v-.092c1.492-2.612 4.85-8.534 9.839-18.373 6.435-12.683 12.637-28.537 12.637-28.537s.56 3.87 2.471 10.305c1.12 3.777 3.45 7.927 5.316 11.937-1.492 2.099-2.425 3.264-2.425 3.264l.047.047c-1.213 1.585-2.518 3.31-3.964 4.99-5.083 6.061-11.144 13.01-11.984 15.014-.98 2.378-.746 4.104 1.12 5.503 1.352 1.026 3.776 1.165 6.248 1.026 4.57-.327 7.787-1.446 9.372-2.145 2.472-.886 5.363-2.239 8.067-4.244 4.99-3.684 8.02-8.953 7.741-15.9-.14-3.824-1.399-7.648-2.938-11.239.467-.652.886-1.305 1.353-1.958 7.88-11.518 13.989-24.155 13.989-24.155s.56 3.87 2.471 10.306c.933 3.264 2.845 6.808 4.523 10.258-7.414 6.016-11.984 13.01-13.616 17.58-2.937 8.487-.653 12.31 3.684 13.196 1.958.42 4.756-.513 6.808-1.399 2.611-.839 5.689-2.284 8.627-4.43 4.99-3.683 9.792-8.813 9.512-15.76-.14-3.171-.979-6.296-2.145-9.327 6.295-2.61 14.409-4.056 24.76-2.844 22.197 2.611 26.58 16.46 25.74 22.29-.839 5.828-5.502 8.999-7.04 9.978-1.54.98-2.052 1.306-1.912 2.005.186 1.026.932.98 2.238.793 1.819-.326 11.658-4.71 12.077-15.435.7-13.709-12.357-28.677-35.439-28.537ZM49.055 168.242c-7.368 8.02-17.626 11.051-22.056 8.487-4.756-2.752-2.891-14.596 6.155-23.082 5.502-5.176 12.59-9.98 17.3-12.917 1.072-.653 2.658-1.585 4.57-2.751.326-.187.513-.28.513-.28l1.119-.7c3.31 12.124.14 22.803-7.601 31.243Zm53.625-36.465c-2.565 6.249-7.927 22.243-11.191 21.357-2.798-.746-4.524-12.87-.56-24.854 2.005-6.016 6.248-13.197 8.72-15.994 4.01-4.477 8.44-5.97 9.512-4.15 1.353 2.378-4.896 19.724-6.481 23.641Zm44.252 21.17c-1.073.56-2.098.933-2.565.653-.326-.187.467-.933.467-.933s5.549-5.968 7.74-8.673c1.26-1.585 2.751-3.45 4.337-5.549v.606c0 7.135-6.902 11.938-9.98 13.896Zm34.133-7.787c-.793-.56-.653-2.425 2.005-8.254 1.026-2.285 3.45-6.108 7.601-9.792.466 1.492.793 2.938.746 4.29-.047 9-6.481 12.357-10.352 13.756Z" fill="#25C2A0"/></symbol><symbol id="icon-english" viewBox="0 0 1024 1024"><path d="M272 640h224c8.836 0 16-7.163 16-16s-7.164-16-16-16H288V464h208c8.836 0 16-7.164 16-16s-7.164-16-16-16H288V288h208c8.836 0 16-7.164 16-16s-7.164-16-16-16H272c-8.836 0-16 7.164-16 16v352c0 8.837 7.164 16 16 16zM864 96H160c-35.346 0-64 28.654-64 64v704c0 35.347 28.654 64 64 64h704c35.346 0 64-28.653 64-64V160c0-35.346-28.654-64-64-64z m32 768c0 17.673-14.327 32-32 32H160c-17.673 0-32-14.327-32-32V160c0-17.673 14.327-32 32-32h704c17.673 0 32 14.327 32 32v704zM672 384c-24.589 0-47.016 9.249-64 24.452V400c0-8.836-7.163-16-16-16s-16 7.164-16 16v224c0 8.837 7.163 16 16 16s16-7.163 16-16V480h-0.003c0-35.348 28.655-64.003 64.003-64.003s64.003 28.655 64.003 64.003H736v144c0 8.837 7.163 16 16 16s16-7.163 16-16V480c0-53.02-42.98-96-96-96z m80 352H272c-8.836 0-16 7.163-16 16s7.164 16 16 16h480c8.837 0 16-7.163 16-16s-7.163-16-16-16z" fill="#25C2A0" /></symbol><symbol id="icon-github" viewBox="0 0 256 250"><path d="M128.001 0C57.317 0 0 57.307 0 128.001c0 56.554 36.676 104.535 87.535 121.46 6.397 1.185 8.746-2.777 8.746-6.158 0-3.052-.12-13.135-.174-23.83-35.61 7.742-43.124-15.103-43.124-15.103-5.823-14.795-14.213-18.73-14.213-18.73-11.613-7.944.876-7.78.876-7.78 12.853.902 19.621 13.19 19.621 13.19 11.417 19.568 29.945 13.911 37.249 10.64 1.149-8.272 4.466-13.92 8.127-17.116-28.431-3.236-58.318-14.212-58.318-63.258 0-13.975 5-25.394 13.188-34.358-1.329-3.224-5.71-16.242 1.24-33.874 0 0 10.749-3.44 35.21 13.121 10.21-2.836 21.16-4.258 32.038-4.307 10.878.049 21.837 1.47 32.066 4.307 24.431-16.56 35.165-13.12 35.165-13.12 6.967 17.63 2.584 30.65 1.255 33.873 8.207 8.964 13.173 20.383 13.173 34.358 0 49.163-29.944 59.988-58.447 63.157 4.591 3.972 8.682 11.762 8.682 23.704 0 17.126-.148 30.91-.148 35.126 0 3.407 2.304 7.398 8.792 6.14C219.37 232.5 256 184.537 256 128.002 256 57.307 198.691 0 128.001 0Zm-80.06 182.34c-.282.636-1.283.827-2.194.39-.929-.417-1.45-1.284-1.15-1.922.276-.655 1.279-.838 2.205-.399.93.418 1.46 1.293 1.139 1.931Zm6.296 5.618c-.61.566-1.804.303-2.614-.591-.837-.892-.994-2.086-.375-2.66.63-.566 1.787-.301 2.626.591.838.903 1 2.088.363 2.66Zm4.32 7.188c-.785.545-2.067.034-2.86-1.104-.784-1.138-.784-2.503.017-3.05.795-.547 2.058-.055 2.861 1.075.782 1.157.782 2.522-.019 3.08Zm7.304 8.325c-.701.774-2.196.566-3.29-.49-1.119-1.032-1.43-2.496-.726-3.27.71-.776 2.213-.558 3.315.49 1.11 1.03 1.45 2.505.701 3.27Zm9.442 2.81c-.31 1.003-1.75 1.459-3.199 1.033-1.448-.439-2.395-1.613-2.103-2.626.301-1.01 1.747-1.484 3.207-1.028 1.446.436 2.396 1.602 2.095 2.622Zm10.744 1.193c.036 1.055-1.193 1.93-2.715 1.95-1.53.034-2.769-.82-2.786-1.86 0-1.065 1.202-1.932 2.733-1.958 1.522-.03 2.768.818 2.768 1.868Zm10.555-.405c.182 1.03-.875 2.088-2.387 2.37-1.485.271-2.861-.365-3.05-1.386-.184-1.056.893-2.114 2.376-2.387 1.514-.263 2.868.356 3.061 1.403Z" fill="#25C2A0"/></symbol><symbol id="icon-scrum" viewBox="0 0 410 364"><path id="svg_2" d="m373.92464,292.3168l-12.336,13.762l11.863,10.914l-76.402,0c-4.7461,3.7969 -9.4922,7.5938 -14.711,10.441c-6.6445,4.2695 -13.285,7.5938 -19.93,10.441l113.89,0l-13.762,13.762l11.391,12.812l36.539,-37.012l-36.542,-35.12z" fill="#25C2A0"/><path id="svg_3" d="m63.11464,171.7868l-4.2695,-10.914c-12.336,53.621 6.6445,109.62 48.402,144.26l37.961,0c-52.199,-25.625 -79.246,-83.992 -65.961,-139.51l-16.1325,6.164z" fill="#25C2A0"/><path id="svg_4" d="m114.83464,143.3168l-7.5938,-16.609l-16.133,7.1172c30.371,-55.52 99.176,-79.723 158.49,-54.098c56.469,24.676 84.941,85.891 70.703,143.78l14.711,-5.6953l4.7461,12.812c4.7461,-17.082 5.6953,-34.641 3.7969,-52.199c32.27,-11.863 54.57,-42.707 54.57,-77.824c0,-45.555 -37.012,-82.566 -82.566,-82.566c-9.9648,0 -19.457,1.8984 -28.945,5.2188l5.6953,-16.609l-16.133,-6.6445l-16.609,49.352l48.402,16.133l4.7461,-17.559l-15.184,-4.7461l-0.47266,-0.94922c6.168,-1.8984 12.336,-2.8477 18.508,-2.8477c33.691,0 61.215,27.523 61.215,61.215c0,24.676 -14.711,46.504 -37.012,55.996c-10.914,-41.285 -39.859,-77.824 -82.094,-96.328c-69.766,-29.891 -150.91,-0.94141 -186.02,65.965l-6.6445,-17.559l-16.609,5.2227l18.98,48.402l47.45256,-18.97988z" fill="#25C2A0"/><path id="svg_5" d="m275.70464,316.9868c21.355,-12.812 38.91,-31.32 51.723,-54.57l6.6445,17.082l16.609,-5.2188l-18.98,-48.402l-47.453,18.508l7.5938,16.609l17.082,-7.1172s0,0.47266 -0.47266,0.47266c-0.47266,0.94922 -1.4219,1.8984 -1.8984,3.3203c0,0 0,0.47266 -0.47266,0.47266c-0.47266,0.94922 -1.4219,1.8984 -1.8984,3.3203c0,0 -0.47266,0.47266 -0.47266,0.47266c-0.47266,0.94922 -1.4219,1.8984 -1.8984,2.8477l0,0.47266c-0.47266,0.94922 -1.4219,1.8984 -1.8984,2.8477c0,0 0,0.47266 -0.47266,0.47266c-0.94922,0.94922 -1.4219,1.8984 -2.3711,2.8477l-0.47266,0.47266c-0.94922,0.94922 -1.4219,1.8984 -2.3711,2.8477l-0.47266,0.47266c-0.94922,0.94922 -1.4219,1.8984 -2.3711,2.8477l-0.47266,0.47266c-0.94922,0.94922 -1.8984,1.8984 -2.3711,2.8477l-0.47266,0.47266c-0.94922,0.94922 -1.8984,1.8984 -2.8477,2.3711l-0.47266,0.47266c-0.94922,0.94922 -1.8984,1.4219 -2.8477,2.3711c-0.94922,0.94922 -1.8984,1.4219 -2.8477,2.3711l-0.47266,0.47266c-0.94922,0.94922 -1.8984,1.4219 -2.8477,2.3711c0,0 -0.47266,0 -0.47266,0.47266c-0.94922,0.94922 -1.8984,1.4219 -2.8477,2.3711c-0.94922,0.94922 -1.8984,1.4219 -3.3203,1.8984c0,0 -0.47266,0 -0.47266,0.47266c-0.94922,0.47266 -1.8984,1.4219 -2.8477,1.8984c0,0 -0.47266,0 -0.47266,0.47266c-2.3711,1.4219 -4.2695,2.3711 -6.6445,3.7969l-0.47266,0c-0.94922,0.47266 -2.3711,0.94922 -3.3203,1.8984l-0.47266,0c-2.3711,0.94922 -4.7461,2.3711 -7.1172,3.3203l-0.47266,0c-0.94922,0.47266 -2.3711,0.94922 -3.3203,1.4219l-0.47266,0c-2.3711,0.94922 -4.7461,1.8984 -7.1172,2.3711c-1.4219,0.47266 -2.3711,0.47266 -3.7969,0.94922l-0.47266,0c-1.4219,0.47266 -2.3711,0.47266 -3.7969,0.94922c-1.4219,0.47266 -2.3711,0.47266 -3.7969,0.94922c-1.4219,0.47266 -2.3711,0.47266 -3.7969,0.47266l-0.47266,0c-1.4219,0 -2.3711,0.47266 -3.7969,0.47266c-1.4219,0 -2.8477,0.47266 -3.7969,0.47266l-24.199,0l-63.629,0.03906l-124.33,0l0,20.883l214.02,0c14.234,-0.94922 28.945,-4.7461 42.234,-10.441c7.1172,-2.8477 13.762,-6.6445 19.93,-10.441l-0.47936,-0.00164z" fill="#25C2A0"/></symbol><symbol id="icon-figma" viewBox="0 0 315 395"><path d="M288.577 138.128a78.938 78.938 0 0 0 26.652-55.832 78.913 78.913 0 0 0-21.797-57.898A78.92 78.92 0 0 0 236.58 0H78.72A78.927 78.927 0 0 0 .075 82.296a78.934 78.934 0 0 0 26.648 55.832A78.933 78.933 0 0 0 0 197.323a78.933 78.933 0 0 0 26.723 59.199A78.919 78.919 0 0 0 .075 312.354 78.926 78.926 0 0 0 78.72 394.65h19.734a78.925 78.925 0 0 0 55.812-23.121 78.924 78.924 0 0 0 23.117-55.809v-50.121a78.94 78.94 0 0 0 39.465 10.652h19.734-.004a78.918 78.918 0 0 0 56.852-24.395 78.917 78.917 0 0 0 21.797-57.902 78.921 78.921 0 0 0-26.652-55.828l.002.002zm-150.66 177.59a39.468 39.468 0 0 1-39.465 39.464H78.718a39.462 39.462 0 0 1-34.176-19.734 39.46 39.46 0 0 1 0-39.465 39.461 39.461 0 0 1 34.176-19.734h59.199v39.469zm0-78.93-59.199-.004a39.458 39.458 0 0 1-34.176-19.73 39.46 39.46 0 0 1 0-39.465 39.461 39.461 0 0 1 34.176-19.734h59.199v78.933zm0-118.39-59.199-.004a39.458 39.458 0 0 1-34.176-19.73 39.46 39.46 0 0 1 0-39.465 39.461 39.461 0 0 1 34.176-19.734h59.199v78.933zm98.66 118.39h-19.73a39.465 39.465 0 0 1-34.18-19.73 39.467 39.467 0 0 1 34.18-59.199h19.734-.004a39.468 39.468 0 0 1 34.18 59.199 39.464 39.464 0 0 1-34.18 19.73zm0-118.39h-59.195v-78.93h59.199-.004a39.468 39.468 0 0 1 34.18 59.199 39.464 39.464 0 0 1-34.18 19.73v.001z" fill="#25C2A0"/><symbol id="icon-arrow" viewBox= "0 0 131 155"><path d="m102.588,45.42l28.17,0l-45.42,-45.42l-45.42,45.42l28.516,0c-4.034,53.517 -31.905,96.753 -68.053,107.266c5.513,1.605 11.224,2.452 17.071,2.452c44.149,0.001 80.488,-48.027 85.136,-109.718z" /></symbol></defs></svg>