<svg viewBox="0 0 315 395"><path d="M288.577 138.128a78.938 78.938 0 0 0 26.652-55.832 78.913 78.913 0 0 0-21.797-57.898A78.92 78.92 0 0 0 236.58 0H78.72A78.927 78.927 0 0 0 .075 82.296a78.934 78.934 0 0 0 26.648 55.832A78.933 78.933 0 0 0 0 197.323a78.933 78.933 0 0 0 26.723 59.199A78.919 78.919 0 0 0 .075 312.354 78.926 78.926 0 0 0 78.72 394.65h19.734a78.925 78.925 0 0 0 55.812-23.121 78.924 78.924 0 0 0 23.117-55.809v-50.121a78.94 78.94 0 0 0 39.465 10.652h19.734-.004a78.918 78.918 0 0 0 56.852-24.395 78.917 78.917 0 0 0 21.797-57.902 78.921 78.921 0 0 0-26.652-55.828l.002.002zm-150.66 177.59a39.468 39.468 0 0 1-39.465 39.464H78.718a39.462 39.462 0 0 1-34.176-19.734 39.46 39.46 0 0 1 0-39.465 39.461 39.461 0 0 1 34.176-19.734h59.199v39.469zm0-78.93-59.199-.004a39.458 39.458 0 0 1-34.176-19.73 39.46 39.46 0 0 1 0-39.465 39.461 39.461 0 0 1 34.176-19.734h59.199v78.933zm0-118.39-59.199-.004a39.458 39.458 0 0 1-34.176-19.73 39.46 39.46 0 0 1 0-39.465 39.461 39.461 0 0 1 34.176-19.734h59.199v78.933zm98.66 118.39h-19.73a39.465 39.465 0 0 1-34.18-19.73 39.467 39.467 0 0 1 34.18-59.199h19.734-.004a39.468 39.468 0 0 1 34.18 59.199 39.464 39.464 0 0 1-34.18 19.73zm0-118.39h-59.195v-78.93h59.199-.004a39.468 39.468 0 0 1 34.18 59.199 39.464 39.464 0 0 1-34.18 19.73v.001z"/></svg>